<svg width="24" height="24" viewBox="0 0 24 24" fill="none" xmlns="http://www.w3.org/2000/svg">
<g clip-path="url(#clip0_76_163)">
<circle cx="12" cy="12" r="2" stroke="white" stroke-width="2"/>
<path d="M5.39881 5.87909C4.46907 6.88119 3.79395 8.0704 3.40085 9.34448L5.00016 10.2678C6.3335 11.0376 6.3335 12.9621 5.00016 13.7319L3.39914 14.6563C3.59436 15.2863 3.86232 15.9046 4.20602 16.4999C4.54971 17.0952 4.95113 17.6363 5.39914 18.1204L7.00019 17.196C8.33352 16.4262 10.0002 17.3885 10.0002 18.9281L10.0002 20.7749C11.3001 21.0715 12.6676 21.0814 14.0003 20.7773L14.0003 18.9282C14.0003 17.3886 15.6669 16.4263 17.0003 17.1961L18.6017 18.1207C19.5314 17.1186 20.2065 15.9294 20.5996 14.6553L19.0003 13.7319C17.6669 12.9621 17.6669 11.0376 19.0003 10.2678L20.6013 9.34342C20.4061 8.7134 20.1382 8.09517 19.7945 7.49989C19.4508 6.90458 19.0493 6.3634 18.6013 5.87932L17.0003 6.80368C15.6669 7.57348 14.0003 6.61123 14.0003 5.07162L14.0003 3.22489C12.7003 2.92828 11.3329 2.91835 10.0002 3.22248L10.0002 5.0716C10.0002 6.6112 8.33352 7.57345 7.00019 6.80365L5.39881 5.87909Z" stroke="white" stroke-width="2" stroke-linejoin="round"/>
</g>
<defs>
<clipPath id="clip0_76_163">
<rect width="24" height="24" fill="white"/>
</clipPath>
</defs>
</svg>
