<svg width="585" height="68" viewBox="0 0 585 68" fill="none" xmlns="http://www.w3.org/2000/svg">
<path d="M557.594 66.9088V16.727H567.036V24.6986H567.559C568.473 21.9978 570.085 19.8743 572.394 18.3279C574.724 16.7597 577.36 15.9756 580.3 15.9756C580.91 15.9756 581.629 15.9974 582.456 16.0409C583.306 16.0845 583.97 16.1389 584.449 16.2043V25.548C584.057 25.4391 583.36 25.3193 582.358 25.1887C581.357 25.0362 580.355 24.96 579.353 24.96C577.044 24.96 574.986 25.45 573.178 26.4301C571.392 27.3885 569.976 28.728 568.931 30.4486C567.885 32.1475 567.363 34.0859 567.363 36.2639V66.9088H557.594Z" fill="white"/>
<path d="M525.226 67.9222C520.282 67.9222 516.024 66.8659 512.452 64.7532C508.902 62.6187 506.157 59.6239 504.219 55.7688C502.302 51.8919 501.344 47.3507 501.344 42.1452C501.344 37.0051 502.302 32.4748 504.219 28.5543C506.157 24.6339 508.858 21.5737 512.321 19.3739C515.806 17.1741 519.879 16.0742 524.54 16.0742C527.371 16.0742 530.116 16.5425 532.773 17.479C535.43 18.4156 537.815 19.8858 539.928 21.8896C542.04 23.8933 543.706 26.4961 544.926 29.6978C546.146 32.8777 546.756 36.7437 546.756 41.2958V44.7589H506.865V37.4407H537.183C537.183 34.8706 536.661 32.5946 535.615 30.6126C534.57 28.6088 533.099 27.0297 531.205 25.8754C529.331 24.721 527.132 24.1438 524.605 24.1438C521.861 24.1438 519.465 24.819 517.418 26.1694C515.392 27.498 513.824 29.2404 512.713 31.3967C511.624 33.5311 511.08 35.8507 511.08 38.3555V44.0728C511.08 47.427 511.668 50.2802 512.844 52.6325C514.042 54.9847 515.708 56.7816 517.842 58.0231C519.977 59.2428 522.471 59.8526 525.324 59.8526C527.175 59.8526 528.863 59.5913 530.388 59.0685C531.912 58.524 533.23 57.7182 534.341 56.6509C535.452 55.5837 536.301 54.266 536.889 52.6978L546.135 54.364C545.394 57.0865 544.066 59.4715 542.149 61.5188C540.254 63.5444 537.869 65.1235 534.994 66.256C532.141 67.3668 528.885 67.9222 525.226 67.9222Z" fill="white"/>
<path d="M493.331 16.7278V24.5687H465.921V16.7278H493.331ZM473.272 4.70508H483.04V52.1752C483.04 54.0701 483.323 55.4967 483.89 56.4551C484.456 57.3916 485.186 58.0341 486.079 58.3826C486.993 58.7093 487.984 58.8727 489.052 58.8727C489.836 58.8727 490.522 58.8182 491.11 58.7093C491.698 58.6004 492.155 58.5133 492.482 58.448L494.246 66.5176C493.68 66.7354 492.874 66.9532 491.829 67.171C490.783 67.4106 489.476 67.5413 487.908 67.563C485.338 67.6066 482.942 67.1492 480.721 66.1909C478.499 65.2325 476.702 63.7515 475.33 61.7477C473.958 59.7439 473.272 57.2283 473.272 54.2008V4.70508Z" fill="white"/>
<path d="M431.633 66.9088V16.727H441.075V24.6986H441.598C442.513 21.9978 444.124 19.8743 446.433 18.3279C448.764 16.7597 451.399 15.9756 454.339 15.9756C454.949 15.9756 455.668 15.9974 456.496 16.0409C457.345 16.0845 458.009 16.1389 458.488 16.2043V25.548C458.096 25.4391 457.399 25.3193 456.397 25.1887C455.396 25.0362 454.394 24.96 453.392 24.96C451.083 24.96 449.025 25.45 447.217 26.4301C445.431 27.3885 444.015 28.728 442.97 30.4486C441.924 32.1475 441.402 34.0859 441.402 36.2639V66.9088H431.633Z" fill="white"/>
<path d="M397.337 67.9222C392.633 67.9222 388.527 66.8441 385.021 64.6879C381.514 62.5316 378.791 59.515 376.853 55.6381C374.915 51.7612 373.945 47.2309 373.945 42.0472C373.945 36.8417 374.915 32.2897 376.853 28.391C378.791 24.4923 381.514 21.4648 385.021 19.3086C388.527 17.1523 392.633 16.0742 397.337 16.0742C402.042 16.0742 406.147 17.1523 409.654 19.3086C413.161 21.4648 415.883 24.4923 417.822 28.391C419.76 32.2897 420.729 36.8417 420.729 42.0472C420.729 47.2309 419.76 51.7612 417.822 55.6381C415.883 59.515 413.161 62.5316 409.654 64.6879C406.147 66.8441 402.042 67.9222 397.337 67.9222ZM397.37 59.7219C400.419 59.7219 402.946 58.9161 404.95 57.3043C406.953 55.6926 408.434 53.5472 409.393 50.8683C410.373 48.1893 410.863 45.238 410.863 42.0146C410.863 38.8129 410.373 35.8725 409.393 33.1935C408.434 30.4928 406.953 28.3256 404.95 26.6921C402.946 25.0586 400.419 24.2418 397.37 24.2418C394.299 24.2418 391.751 25.0586 389.725 26.6921C387.721 28.3256 386.229 30.4928 385.249 33.1935C384.291 35.8725 383.812 38.8129 383.812 42.0146C383.812 45.238 384.291 48.1893 385.249 50.8683C386.229 53.5472 387.721 55.6926 389.725 57.3043C391.751 58.9161 394.299 59.7219 397.37 59.7219Z" fill="white"/>
<path d="M318.765 66.9091V0H342.615C347.82 0 352.133 0.947441 355.552 2.84233C358.972 4.73721 361.531 7.32907 363.23 10.6179C364.928 13.8849 365.778 17.5658 365.778 21.6605C365.778 25.777 364.918 29.4796 363.197 32.7685C361.498 36.0355 358.928 38.6274 355.487 40.544C352.067 42.4389 347.766 43.3864 342.582 43.3864H326.181V34.8267H341.667C344.956 34.8267 347.624 34.2604 349.671 33.1278C351.719 31.9735 353.222 30.4053 354.18 28.4233C355.138 26.4413 355.617 24.187 355.617 21.6605C355.617 19.134 355.138 16.8906 354.18 14.9304C353.222 12.9702 351.708 11.4347 349.639 10.3239C347.591 9.21307 344.891 8.65767 341.536 8.65767H328.86V66.9091H318.765Z" fill="white"/>
<path d="M258.325 66.9088V16.727H267.766V24.6986H268.289C269.204 21.9978 270.816 19.8743 273.124 18.3279C275.455 16.7597 278.09 15.9756 281.031 15.9756C281.641 15.9756 282.359 15.9974 283.187 16.0409C284.036 16.0845 284.701 16.1389 285.18 16.2043V25.548C284.788 25.4391 284.091 25.3193 283.089 25.1887C282.087 25.0362 281.085 24.96 280.083 24.96C277.775 24.96 275.716 25.45 273.909 26.4301C272.123 27.3885 270.707 28.728 269.661 30.4486C268.616 32.1475 268.093 34.0859 268.093 36.2639V66.9088H258.325Z" fill="white"/>
<path d="M225.956 67.9222C221.012 67.9222 216.754 66.8659 213.182 64.7532C209.632 62.6187 206.888 59.6239 204.949 55.7688C203.033 51.8919 202.074 47.3507 202.074 42.1452C202.074 37.0051 203.033 32.4748 204.949 28.5543C206.888 24.6339 209.588 21.5737 213.051 19.3739C216.536 17.1741 220.609 16.0742 225.27 16.0742C228.102 16.0742 230.846 16.5425 233.503 17.479C236.16 18.4156 238.545 19.8858 240.658 21.8896C242.771 23.8933 244.437 26.4961 245.657 29.6978C246.876 32.8777 247.486 36.7437 247.486 41.2958V44.7589H207.596V37.4407H237.914C237.914 34.8706 237.391 32.5946 236.346 30.6126C235.3 28.6088 233.83 27.0297 231.935 25.8754C230.062 24.721 227.862 24.1438 225.336 24.1438C222.591 24.1438 220.195 24.819 218.148 26.1694C216.123 27.498 214.554 29.2404 213.444 31.3967C212.355 33.5311 211.81 35.8507 211.81 38.3555V44.0728C211.81 47.427 212.398 50.2802 213.574 52.6325C214.772 54.9847 216.438 56.7816 218.573 58.0231C220.707 59.2428 223.201 59.8526 226.054 59.8526C227.906 59.8526 229.594 59.5913 231.118 59.0685C232.643 58.524 233.961 57.7182 235.071 56.6509C236.182 55.5837 237.032 54.266 237.62 52.6978L246.865 54.364C246.125 57.0865 244.796 59.4715 242.88 61.5188C240.985 63.5444 238.6 65.1235 235.725 66.256C232.872 67.3668 229.615 67.9222 225.956 67.9222Z" fill="white"/>
<path d="M140.817 66.9094L126.05 16.7275H136.145L145.979 53.5798H146.469L156.336 16.7275H166.431L176.232 53.4165H176.722L186.491 16.7275H196.586L181.851 66.9094H171.887L161.694 30.6778H160.942L150.749 66.9094H140.817Z" fill="white"/>
<path d="M97.1694 67.9222C92.4648 67.9222 88.3593 66.8441 84.8526 64.6879C81.346 62.5316 78.6235 59.515 76.685 55.6381C74.7466 51.7612 73.7773 47.2309 73.7773 42.0472C73.7773 36.8417 74.7466 32.2897 76.685 28.391C78.6235 24.4923 81.346 21.4648 84.8526 19.3086C88.3593 17.1523 92.4648 16.0742 97.1694 16.0742C101.874 16.0742 105.98 17.1523 109.486 19.3086C112.993 21.4648 115.715 24.4923 117.654 28.391C119.592 32.2897 120.561 36.8417 120.561 42.0472C120.561 47.2309 119.592 51.7612 117.654 55.6381C115.715 59.515 112.993 62.5316 109.486 64.6879C105.98 66.8441 101.874 67.9222 97.1694 67.9222ZM97.2021 59.7219C100.251 59.7219 102.778 58.9161 104.782 57.3043C106.785 55.6926 108.266 53.5472 109.225 50.8683C110.205 48.1893 110.695 45.238 110.695 42.0146C110.695 38.8129 110.205 35.8725 109.225 33.1935C108.266 30.4928 106.785 28.3256 104.782 26.6921C102.778 25.0586 100.251 24.2418 97.2021 24.2418C94.131 24.2418 91.5827 25.0586 89.5572 26.6921C87.5534 28.3256 86.0614 30.4928 85.0813 33.1935C84.123 35.8725 83.6438 38.8129 83.6438 42.0146C83.6438 45.238 84.123 48.1893 85.0813 50.8683C86.0614 53.5472 87.5534 55.6926 89.5572 57.3043C91.5827 58.9161 94.131 59.7219 97.2021 59.7219Z" fill="white"/>
<path d="M62.89 0V66.9091H53.1216V0H62.89Z" fill="white"/>
<path d="M-0.000488281 66.9091V0H41.491V8.69034H10.0947V29.0767H38.518V37.7344H10.0947V66.9091H-0.000488281Z" fill="white"/>
</svg>
