<svg width="106" height="115" viewBox="0 0 106 115" fill="none" xmlns="http://www.w3.org/2000/svg">
<path d="M106 23.2432C98.1436 26.5698 91.4543 29.163 84.5604 33.412C84.3715 36.5595 84.2926 39.2637 84.2765 41.6013C87.5321 39.2866 90.7418 37.4195 93.5897 35.9653C90.4438 45.1636 90.7009 55.7007 90.9517 65.9762C91.2259 77.1921 91.3661 83.166 87.6635 91.4317C79.972 108.604 65.3496 112.8 62.3936 114.162C88.169 112.117 99.2306 97.9228 97.5865 63.605C96.4547 39.9757 99.9221 32.4712 106 23.2432Z" fill="white"/>
<path d="M79.2783 29.9173C80.4057 18.0299 82.4457 15.0013 85.7256 7.41542C79.8476 10.3427 72.289 13.6022 65.1083 19.9165C61.5173 16.1822 54.152 7.71346 52.9998 0C51.8471 7.71394 44.4818 16.1827 40.8917 19.9165C33.71 13.6012 26.1519 10.3427 20.2744 7.41542C24.0725 16.2046 26.2133 18.886 27.1897 36.3086C27.1897 36.3091 27.1897 36.3096 27.1902 36.3101C27.2097 36.6724 27.2335 37.0021 27.2525 37.3766C27.2501 37.3746 27.2462 37.3722 27.2438 37.3703C18.1614 30.5349 10.0306 27.4921 0 23.2431C6.07717 32.4711 9.54503 39.9757 8.41228 63.6045C6.7682 97.9228 17.8307 112.117 43.6062 114.161C40.6502 112.8 26.0278 108.603 18.3362 91.4312C14.6326 83.1655 14.7734 77.192 15.0471 65.9757C15.2983 55.7001 15.555 45.1631 12.409 35.9648C16.9449 38.2809 22.3972 41.5798 27.4926 46.1775C27.4946 46.1795 27.4965 46.1814 27.4989 46.1833C27.5291 52.9564 27.1878 56.5689 26.9672 59.1125C24.539 87.1515 31.7621 93.9898 44.044 100.856C52.2196 83.7582 51.4701 68.6254 42.8971 54.4111C41.8642 52.6993 40.7495 51.1025 39.588 49.5821C39.5807 52.4495 39.5534 56.287 38.8122 60.9679C45.5717 74.8482 44.4238 90.0257 42.3507 96.0771C31.1022 87.4135 32.9109 71.6676 33.579 59.6847C33.8099 55.5214 34.2243 46.1254 33.823 36.1362C33.5401 31.0632 33.0472 25.9338 32.2559 21.5133C44.98 30.6707 48.6548 41.2156 53.0124 52.1076C57.1134 41.8579 60.7298 30.8792 73.7427 21.5133C72.5758 28.0424 72.045 36.1211 71.9087 43.2726C68.7067 46.4463 65.6815 50.1343 63.1019 54.4111C54.5289 68.6259 53.779 83.7582 61.9551 100.856C74.238 93.9898 81.46 87.1515 79.0314 59.1125C78.1397 48.7829 78.5848 37.2154 79.2783 29.9173ZM55.8521 30.5134C54.9248 31.9004 53.0494 35.0799 52.9998 35.1705C52.9501 35.0799 51.1672 32.0518 50.2906 30.7272C48.744 28.3936 47.1203 26.3151 45.4495 24.444C48.1917 21.1895 50.763 17.9607 52.9998 14.3872C55.4562 17.9125 57.9919 21.5888 60.4975 24.4996C58.8963 26.298 57.3389 28.2903 55.8521 30.5134ZM63.6498 96.0771C61.1778 88.8652 59.9852 68.6687 71.9827 53.1795C72.0816 55.7873 72.1984 57.1119 72.421 59.6847C73.4081 71.0706 74.8968 87.4135 63.6498 96.0771Z" fill="white"/>
</svg>
